<svg width="96" height="96" viewBox="0 0 96 96" xmlns="http://www.w3.org/2000/svg">
  <!-- QR Code Pattern -->
  <rect width="96" height="96" fill="white"/>
  
  <!-- Corner squares -->
  <rect x="0" y="0" width="28" height="28" fill="black"/>
  <rect x="4" y="4" width="20" height="20" fill="white"/>
  <rect x="8" y="8" width="12" height="12" fill="black"/>
  
  <rect x="68" y="0" width="28" height="28" fill="black"/>
  <rect x="72" y="4" width="20" height="20" fill="white"/>
  <rect x="76" y="8" width="12" height="12" fill="black"/>
  
  <rect x="0" y="68" width="28" height="28" fill="black"/>
  <rect x="4" y="72" width="20" height="20" fill="white"/>
  <rect x="8" y="76" width="12" height="12" fill="black"/>
  
  <!-- Timing patterns -->
  <rect x="32" y="24" width="4" height="4" fill="black"/>
  <rect x="40" y="24" width="4" height="4" fill="black"/>
  <rect x="48" y="24" width="4" height="4" fill="black"/>
  <rect x="56" y="24" width="4" height="4" fill="black"/>
  <rect x="64" y="24" width="4" height="4" fill="black"/>
  
  <rect x="24" y="32" width="4" height="4" fill="black"/>
  <rect x="24" y="40" width="4" height="4" fill="black"/>
  <rect x="24" y="48" width="4" height="4" fill="black"/>
  <rect x="24" y="56" width="4" height="4" fill="black"/>
  <rect x="24" y="64" width="4" height="4" fill="black"/>
  
  <!-- Data pattern -->
  <rect x="32" y="32" width="4" height="4" fill="black"/>
  <rect x="40" y="32" width="4" height="4" fill="black"/>
  <rect x="52" y="32" width="4" height="4" fill="black"/>
  <rect x="60" y="32" width="4" height="4" fill="black"/>
  
  <rect x="36" y="36" width="4" height="4" fill="black"/>
  <rect x="44" y="36" width="4" height="4" fill="black"/>
  <rect x="56" y="36" width="4" height="4" fill="black"/>
  <rect x="64" y="36" width="4" height="4" fill="black"/>
  
  <rect x="32" y="40" width="4" height="4" fill="black"/>
  <rect x="48" y="40" width="4" height="4" fill="black"/>
  <rect x="60" y="40" width="4" height="4" fill="black"/>
  
  <rect x="36" y="44" width="4" height="4" fill="black"/>
  <rect x="52" y="44" width="4" height="4" fill="black"/>
  <rect x="64" y="44" width="4" height="4" fill="black"/>
  
  <rect x="40" y="48" width="4" height="4" fill="black"/>
  <rect x="48" y="48" width="4" height="4" fill="black"/>
  <rect x="56" y="48" width="4" height="4" fill="black"/>
  
  <rect x="32" y="52" width="4" height="4" fill="black"/>
  <rect x="44" y="52" width="4" height="4" fill="black"/>
  <rect x="60" y="52" width="4" height="4" fill="black"/>
  
  <rect x="36" y="56" width="4" height="4" fill="black"/>
  <rect x="48" y="56" width="4" height="4" fill="black"/>
  <rect x="64" y="56" width="4" height="4" fill="black"/>
  
  <rect x="40" y="60" width="4" height="4" fill="black"/>
  <rect x="52" y="60" width="4" height="4" fill="black"/>
  <rect x="60" y="60" width="4" height="4" fill="black"/>
  
  <rect x="32" y="64" width="4" height="4" fill="black"/>
  <rect x="44" y="64" width="4" height="4" fill="black"/>
  <rect x="56" y="64" width="4" height="4" fill="black"/>
  
  <!-- Additional data modules -->
  <rect x="32" y="72" width="4" height="4" fill="black"/>
  <rect x="40" y="72" width="4" height="4" fill="black"/>
  <rect x="48" y="72" width="4" height="4" fill="black"/>
  <rect x="56" y="72" width="4" height="4" fill="black"/>
  <rect x="64" y="72" width="4" height="4" fill="black"/>
  
  <rect x="32" y="76" width="4" height="4" fill="black"/>
  <rect x="44" y="76" width="4" height="4" fill="black"/>
  <rect x="52" y="76" width="4" height="4" fill="black"/>
  <rect x="64" y="76" width="4" height="4" fill="black"/>
  
  <rect x="36" y="80" width="4" height="4" fill="black"/>
  <rect x="48" y="80" width="4" height="4" fill="black"/>
  <rect x="56" y="80" width="4" height="4" fill="black"/>
  
  <rect x="32" y="84" width="4" height="4" fill="black"/>
  <rect x="40" y="84" width="4" height="4" fill="black"/>
  <rect x="52" y="84" width="4" height="4" fill="black"/>
  <rect x="60" y="84" width="4" height="4" fill="black"/>
  
  <rect x="36" y="88" width="4" height="4" fill="black"/>
  <rect x="44" y="88" width="4" height="4" fill="black"/>
  <rect x="56" y="88" width="4" height="4" fill="black"/>
  <rect x="64" y="88" width="4" height="4" fill="black"/>
  
  <rect x="32" y="92" width="4" height="4" fill="black"/>
  <rect x="48" y="92" width="4" height="4" fill="black"/>
  <rect x="60" y="92" width="4" height="4" fill="black"/>
  
  <!-- Vertical data -->
  <rect x="72" y="32" width="4" height="4" fill="black"/>
  <rect x="76" y="36" width="4" height="4" fill="black"/>
  <rect x="80" y="40" width="4" height="4" fill="black"/>
  <rect x="72" y="44" width="4" height="4" fill="black"/>
  <rect x="84" y="48" width="4" height="4" fill="black"/>
  <rect x="76" y="52" width="4" height="4" fill="black"/>
  <rect x="88" y="56" width="4" height="4" fill="black"/>
  <rect x="80" y="60" width="4" height="4" fill="black"/>
  <rect x="92" y="64" width="4" height="4" fill="black"/>
</svg>
